<svg version="1" xmlns="http://www.w3.org/2000/svg" width="682.667" height="682.667" viewBox="0 0 512.000000 512.000000"><path d="M114.5 66.5l-2.5 2.4v102.2l2.5 2.4c2.3 2.4 3.1 2.5 13.5 2.5s11.2-.1 13.5-2.5l2.5-2.4V68.9l-2.5-2.4c-2.3-2.4-3.1-2.5-13.5-2.5s-11.2.1-13.5 2.5zM306.5 66.5l-2.5 2.4V115c0 25.3.2 46 .5 46s7.5-7 16-15.5L336 130V68.9l-2.5-2.4c-2.3-2.4-3.1-2.5-13.5-2.5s-11.2.1-13.5 2.5zM432 112.5c-11.3 11.3-20.8 20.5-21.1 20.5-.3 0-4.4-3.7-9-8.3-4.6-4.6-9.5-9.1-10.9-10-3.7-2.4-9.6-2.9-13.9-1.1-4.1 1.7-68.2 64.9-70.8 69.8-1.8 3.4-1.9 10.6-.2 13.8.6 1.3 5.3 6.6 10.5 11.8l9.4 9.5-7.4 7.4-7.5 7.4-4.6-1.3c-20.7-5.8-44.4 5.7-75 36.4-16.7 16.8-19.6 20-28.4 32.1-12 16.4-15.1 23.7-15.7 37.3-.3 7.2 0 10 1.3 12.7l1.7 3.6-7.7 7.7c-4.2 4.3-7.7 8.2-7.7 8.7 0 .6 1.6 2.5 3.5 4.2 1.9 1.8 3.5 3.6 3.5 4 0 .4-1.6 2.4-3.6 4.5-3.7 3.7-3.7 3.8-3.5 11.5.1 4.2.3 7.9.5 8 .1.1 3.7.4 8.1.7l7.8.4 4.2-3.9 4.3-4 4.2 4.3 4.2 4.3 4.2-4.5c2.3-2.5 5.8-6 7.7-7.7l3.5-3.3 5.9 2.5c11.1 4.5 24.5 2.3 39-6.4 25.7-15.4 64.1-55 76.3-78.6 6.3-12.1 7.5-25.2 3.2-34.4-2.2-4.8-2.2-4.9-.4-7.2 1-1.3 4.3-4.6 7.2-7.3l5.3-5 21.2 21c11.7 11.6 22.5 21.6 24 22.2 4.1 1.7 8.8 1.5 13.1-.7l3.8-2 4.9 3.9c7.6 6 17.7 6.6 24.4 1.5 6.8-5.1 39.1-38.6 40.7-42.2 3.5-7.6 1.6-16.5-4.9-23.4l-2.4-2.6 2-3.4c2.5-4.1 2.7-10.8.5-15.2-.9-1.8-10.9-12.4-22.1-23.6l-20.4-20.4 2.3-2.4c1.3-1.4 10.6-10.8 20.8-20.9l18.4-18.5-16.9-16.9-17-17-20.5 20.5zm29.9 11.9c1.2 1.7-.1 3.3-13.6 16.8l-14.9 14.9-5.6-5.6-5.7-5.7 15-14.9 15.1-15 4.2 3.8c2.3 2.1 4.8 4.7 5.5 5.7zm-39.3 54.9l39.4 39.3-25 25c-13.8 13.7-25.3 25.1-25.6 25.4-.2.2-18.2-17.3-39.9-39L332 190.5l25.2-25.2c13.9-13.9 25.5-25.3 25.7-25.3.2 0 18.1 17.7 39.7 39.3zM343 235.5l5.4 5.5-6.9 7-7 7-5.6-5.7-5.6-5.8 6.6-6.7c3.6-3.6 6.8-6.7 7.1-6.7.3-.1 3 2.4 6 5.4zM467.8 248c-.6 1.8-27 28-28.2 28-.6 0 5.4-6.5 13.4-14.5s14.6-14.5 14.8-14.5c.2 0 .2.5 0 1zm-166.9 8c3.3 1.8 25.1 24.8 25.2 26.6.3 5.2-.4 8.4-3.2 13.9-5.7 11.7-3.1 12.8-27.5-11.6l-21.6-21.6 3.2-2.3c7.4-5.3 19-7.7 23.9-5zm-22.4 46l22.9 22.9-2 2.2c-3.8 4.4-15.6 15.9-16.2 15.9-.4 0-11-10.3-23.6-22.9l-23-23 4.5-4.8c5.1-5.6 13.2-13.3 13.9-13.3.3 0 10.8 10.3 23.5 23zM262 361.1c-6.7 5.3-16 8.6-22.8 8.1-2.3-.2-24.9-21.7-27.1-25.9-2.4-4.6-.3-13 5.6-22.2l3.5-5.4 21.6 21.7 21.7 21.7-2.5 2zm-56.2 10.8c5.6 5.4 6 6.2 3.6 8.1-1.3 1.1-2.3.5-6.9-4-4.4-4.4-5.2-5.7-4.4-7.2.5-1 1.3-1.8 1.7-1.8.4 0 3.1 2.2 6 4.9z"/><path d="M384.1 192.1v28.4l13.5 13.4 13.5 13.5 2.7-2.7 2.7-2.7.1-23 .1-23-14.2-14.2c-7.9-7.9-15.2-15.1-16.4-16.2l-2-1.9v28.4zM55.3 113.4c-11.2 3.5-19.6 12.8-22.2 24.4-.5 2.7-.9 61.7-.8 153l.2 148.7 2.7 5.6c3.6 7.1 8.9 12.5 15.8 15.8l5.5 2.6h336l4.8-2.3c8.6-4.3 15.9-13.3 18.3-22.7 1.2-4.8 1.1-125.4-.1-125.9-.6-.2-2.4-.2-4 0-6.9.8-21.6-5.9-24.8-11.3-.4-.7-1.2-1.3-1.7-1.3-.6 0-1.1 25.4-1.2 65.7l-.3 65.8-159 .1c-87.5.1-159.2-.2-159.5-.7-.4-.6-.5-140.8-.1-261.6L65 144l7.5.3 7.5.2V112l-10.2.1c-5.7 0-12.2.6-14.5 1.3zM176 128c0 14.5.2 16 1.8 16.1.9 0 22.5.1 47.9.2l46.3.2V112h-96v16z"/><path d="M80 232v24h48v-48H80v24zM160 232v24h48v-48h-48v24zM240 223.5v15.4l8.2-5.9c13.9-9.9 24-14.7 37.1-17.5 2.3-.5 2.7-1 2.7-4V208h-48v15.5zM80 312v24h48v-48H80v24zM160 312v24h10.9l.6-3.8c1.9-12.2 7.2-24.6 15.5-36.3 2.8-3.8 5-7.1 5-7.4 0-.3-7.2-.5-16-.5h-16v24zM366.6 289.2c-.2.7-1.1 4.9-2.1 9.3-2 9.1-7 19.3-14.4 29.4-2.8 3.9-5.1 7.3-5.1 7.6 0 .3 5.2.5 11.5.5H368v-24c0-21.5-.3-26.7-1.4-22.8zM80 392v24h48v-48H80v24zM320 392v24h48v-48h-48v24zM281.5 395.6c-10.6 7.6-23.3 12.6-35.6 14-5.7.6-5.9.8-5.9 3.5v2.9h48v-12c0-6.6-.3-12-.8-12-.4 0-3 1.6-5.7 3.6z"/></svg>